<?xml version="1.0" encoding="UTF-8"?>
<!-- Created with Inkscape (http://www.inkscape.org/) -->
<svg width="128" height="128" version="1.1" viewBox="0 0 33.867 33.867" xmlns="http://www.w3.org/2000/svg">
 <g transform="translate(-66 -49)">
  <circle cx="82.933" cy="65.933" r="16.933" fill="#5e548e" fill-rule="evenodd" stroke-width=".17028"/>
  <g transform="translate(.69229)" fill="#fff" stroke-width=".25508" aria-label="sisterly">
   <path d="m69.014 68.91q-0.36867 0-0.65265-0.1096-0.28398-0.11459-0.47828-0.31387-0.17935-0.18434-0.26903-0.40853-0.08968-0.22917-0.08968-0.47329 0-0.3338 0.16939-0.60283 0.14946-0.23914 0.37365-0.34376 0.39856-0.70745 0.6925-1.4348 0.29394-0.72738 0.56297-1.5893l1.5096-0.19928q0.05978 1.2953 0.1096 1.9878 0.04982 0.71243 0.08469 1.0462 0.02989 0.3886 0.02989 0.67756 0 0.25907-0.03986 0.3886 0.45835-0.26903 0.73236-0.51315h0.42846q-0.36369 0.42347-0.75229 0.72738-0.38362 0.3039-0.80709 0.54802-0.3039 0.31885-0.76225 0.47329-0.39856 0.1395-0.84196 0.1395zm-0.32383-0.80709q0.38362 0 0.61279-0.20924 0.27401-0.2491 0.27401-0.73734 0-0.20426-0.02491-0.51315l-0.02491-0.3039q-0.04484-0.39358-0.08968-0.91171l-0.0548-0.68752q-0.14448 0.46333-0.34376 0.92168-0.19928 0.45336-0.48326 1.0064 0.23416 0.12953 0.23416 0.35372 0 0.19928-0.11957 0.34376-0.12953 0.15942-0.32881 0.15942-0.09964 0-0.16939-0.02491-0.06477-0.02989-0.10462-0.1096 0 0.36867 0.14448 0.54304 0.14448 0.16939 0.47828 0.16939z"/>
   <path d="m73.453 63.195q-0.16441 0-0.31387-0.05978-0.14946-0.06477-0.25907-0.17437-0.1096-0.10462-0.17437-0.25408-0.05978-0.14946-0.05978-0.31387t0.05978-0.31387q0.06477-0.14946 0.17437-0.26405 0.1096-0.11459 0.25907-0.17437 0.14946-0.06477 0.31387-0.06477t0.31387 0.06477q0.14946 0.05979 0.26405 0.17437 0.11459 0.11459 0.17437 0.26405 0.06477 0.14946 0.06477 0.31387t-0.06477 0.31387q-0.05978 0.14946-0.17437 0.25408-0.11459 0.1096-0.26405 0.17437-0.14946 0.05978-0.31387 0.05978zm-0.6925 5.7144q-0.48824 0-0.77222-0.28896-0.31885-0.31885-0.31885-0.93164 0-0.28896 0.07971-0.66759l0.6925-3.2732h1.4697l-0.73236 3.4675q-0.03986 0.12953-0.03986 0.32882 0 0.20924 0.09466 0.29394 0.09964 0.08469 0.31885 0.08469 0.14946 0 0.28896-0.06477 0.14448-0.06975 0.26405-0.18932 0.24412-0.24412 0.36867-0.64766h0.42846q-0.27401 0.77222-0.68752 1.2306-0.34874 0.37365-0.78716 0.53806-0.31885 0.11957-0.66759 0.11957z"/>
   <path d="m75.635 68.91q-0.36867 0-0.65265-0.1096-0.28398-0.11459-0.47828-0.31387-0.17935-0.18434-0.26903-0.40853-0.08968-0.22917-0.08968-0.47329 0-0.3338 0.16939-0.60283 0.14946-0.23914 0.37365-0.34376 0.39856-0.70745 0.6925-1.4348 0.29394-0.72738 0.56297-1.5893l1.5096-0.19928q0.05978 1.2953 0.1096 1.9878 0.04982 0.71243 0.08469 1.0462 0.02989 0.3886 0.02989 0.67756 0 0.25907-0.03986 0.3886 0.45835-0.26903 0.73236-0.51315h0.42846q-0.36369 0.42347-0.75229 0.72738-0.38362 0.3039-0.80709 0.54802-0.3039 0.31885-0.76225 0.47329-0.39856 0.1395-0.84196 0.1395zm-0.32383-0.80709q0.38362 0 0.61279-0.20924 0.27401-0.2491 0.27401-0.73734 0-0.20426-0.02491-0.51315l-0.02491-0.3039q-0.04484-0.39358-0.08968-0.91171l-0.0548-0.68752q-0.14448 0.46333-0.34376 0.92168-0.19928 0.45336-0.48326 1.0064 0.23416 0.12953 0.23416 0.35372 0 0.19928-0.11957 0.34376-0.12953 0.15942-0.32881 0.15942-0.09964 0-0.16939-0.02491-0.06477-0.02989-0.10462-0.1096 0 0.36867 0.14448 0.54304 0.14448 0.16939 0.47828 0.16939z"/>
   <path d="m79.381 68.91q-0.48824 0-0.77221-0.28896-0.31885-0.31885-0.31885-0.93164 0-0.28896 0.07971-0.66759l0.61279-2.8647h-0.33878l0.08469-0.40853h0.3338l0.30889-1.4099 1.5096-0.20426-0.34874 1.6142h0.61279l-0.07971 0.40853h-0.61279l-0.65265 3.059q-0.03986 0.12953-0.03986 0.32882 0 0.20924 0.09466 0.29394 0.09964 0.08469 0.31885 0.08469 0.14946 0 0.28896-0.06477 0.14448-0.06975 0.26405-0.18932 0.24412-0.24412 0.36867-0.64766h0.42846q-0.27401 0.77222-0.68752 1.2306-0.34874 0.37365-0.78716 0.53806-0.31885 0.11957-0.66759 0.11957z"/>
   <path d="m82.555 68.91q-0.75229 0-1.1608-0.37863-0.43344-0.40354-0.43344-1.2405 0-0.31387 0.06477-0.69748 0.05978-0.38362 0.18434-0.76723 0.1395-0.42846 0.35372-0.81207 0.21921-0.38362 0.50817-0.67756 0.66759-0.67756 1.6441-0.67756 0.62275 0 0.90673 0.29892 0.21921 0.23416 0.21921 0.67756 0 0.43344-0.18932 0.81705-0.18932 0.37864-0.52311 0.67258-0.3338 0.28896-0.75727 0.46333-0.42347 0.16939-0.87684 0.19928-0.02491 0.25906-0.02491 0.40853 0 0.4982 0.18932 0.68752 0.16441 0.16939 0.54802 0.16939 0.553 0 1.0114-0.29892 0.1943-0.12455 0.37365-0.29394 0.17935-0.17437 0.41849-0.43842h0.34874q-0.48326 0.81705-1.111 1.3003-0.77222 0.58788-1.6939 0.58788zm0.01993-2.6106q0.28398-0.01993 0.553-0.16441 0.26903-0.14448 0.47828-0.37864 0.20924-0.23914 0.32881-0.53308 0.11957-0.29892 0.11957-0.60781 0-0.20426-0.05978-0.30889-0.0548-0.1096-0.1943-0.1096-0.18434 0-0.37365 0.17935-0.18434 0.17935-0.35871 0.49322-0.15942 0.29394-0.28896 0.66759-0.12953 0.37365-0.20426 0.76225z"/>
   <path d="m85.704 63.748h1.4697l-0.12953 0.63272q0.34874-0.30889 0.56795-0.43842 0.33878-0.1943 0.66261-0.1943 0.32881 0 0.5281 0.23416 0.08968 0.10462 0.13451 0.24412 0.04484 0.13451 0.04484 0.28896 0 0.1395-0.04484 0.26903t-0.13451 0.23416q-0.09964 0.1096-0.24412 0.17437-0.1395 0.06477-0.31387 0.06477-0.13452 0-0.21423-0.04484-0.07971-0.04484-0.12455-0.12953-0.03986-0.08469-0.0548-0.16441-0.04484-0.21423-0.08968-0.28398-0.03487-0.04982-0.1096-0.04982-0.21423 0-0.36369 0.08968t-0.37863 0.29892l-0.81705 3.876h-1.4697z"/>
   <path d="m89.859 68.91q-0.48824 0-0.77221-0.28896-0.31885-0.31885-0.31885-0.93164 0-0.28896 0.07971-0.66759l1.0911-5.1116 1.5096-0.20426-1.1708 5.5101q-0.03986 0.12953-0.03986 0.32882 0 0.20924 0.09466 0.29394 0.09964 0.08469 0.31885 0.08469 0.14946 0 0.28896-0.06477 0.14448-0.06975 0.26405-0.18932 0.24412-0.24412 0.36867-0.64766h0.42846q-0.27401 0.77222-0.68752 1.2306-0.34874 0.37365-0.78716 0.53806-0.31885 0.11957-0.66759 0.11957z"/>
   <path d="m93.162 71.401q-0.23914 0-0.44838-0.06477-0.20426-0.05978-0.35372-0.18434-0.15942-0.12455-0.2491-0.31387-0.08968-0.18434-0.08968-0.42845 0-0.57792 0.54304-0.99142 0.40853-0.3039 1.121-0.5281l0.12455-0.54802q-0.29892 0.32881-0.64766 0.46333-0.26903 0.10462-0.57792 0.10462-0.48824 0-0.77222-0.28896-0.31885-0.31885-0.31885-0.93164 0-0.28896 0.07971-0.66759l0.6925-3.2732h1.4697l-0.73236 3.4675q-0.02989 0.12455-0.02989 0.25907 0 0.1943 0.06477 0.30889 0.07473 0.1395 0.23914 0.1395 0.26903 0 0.48326-0.23914 0.18434-0.20426 0.31387-0.59784l0.71243-3.338h1.4697l-1.0114 4.7329q0.48326-0.15942 0.77222-0.47828 0.31387-0.34376 0.51315-0.98146h0.42846q-0.27401 0.90673-0.81705 1.4-0.39856 0.35871-0.98644 0.50817l-0.15444 0.73734q-0.1943 0.97648-0.7772 1.4149-0.42347 0.31885-1.0612 0.31885zm-0.23416-0.79712q0.15444 0 0.32881-0.22419 0.16939-0.21921 0.26405-0.68254l0.05979-0.29394q-0.46333 0.17437-0.6925 0.35372-0.3039 0.22917-0.3039 0.51315 0 0.13452 0.08469 0.22419 0.09466 0.1096 0.25906 0.1096z"/>
  </g>
 </g>
</svg>
